<svg width="50" height="44" viewBox="0 0 50 44" fill="none" xmlns="http://www.w3.org/2000/svg">
<circle cx="22" cy="22" r="21.5" stroke="#E5E5E5"/>
<circle cx="39.5" cy="10.5" r="10.5" fill="#E33E54"/>
<path d="M38.731 12.8835V14H34.254V12.8835H35.838V8.5165C35.838 8.42117 35.8398 8.324 35.8435 8.225C35.8472 8.126 35.8527 8.02517 35.86 7.9225L34.815 8.7915C34.7417 8.8465 34.6702 8.88133 34.6005 8.896C34.5308 8.91067 34.4648 8.9125 34.4025 8.9015C34.3402 8.88683 34.2852 8.86483 34.2375 8.8355C34.1898 8.8025 34.1532 8.7695 34.1275 8.7365L33.649 8.093L36.102 6.014H37.3505V12.8835H38.731ZM45.5134 10.007C45.5134 10.7037 45.4382 11.3087 45.2879 11.822C45.1375 12.3353 44.9304 12.7607 44.6664 13.098C44.4024 13.4317 44.0889 13.681 43.7259 13.846C43.3665 14.0073 42.9779 14.088 42.5599 14.088C42.1419 14.088 41.7532 14.0073 41.3939 13.846C41.0345 13.681 40.7247 13.4317 40.4644 13.098C40.204 12.7607 39.9987 12.3353 39.8484 11.822C39.7017 11.3087 39.6284 10.7037 39.6284 10.007C39.6284 9.31033 39.7017 8.70717 39.8484 8.1975C39.9987 7.68417 40.204 7.26067 40.4644 6.927C40.7247 6.58967 41.0345 6.34033 41.3939 6.179C41.7532 6.014 42.1419 5.9315 42.5599 5.9315C42.9779 5.9315 43.3665 6.014 43.7259 6.179C44.0889 6.34033 44.4024 6.58967 44.6664 6.927C44.9304 7.26067 45.1375 7.68417 45.2879 8.1975C45.4382 8.70717 45.5134 9.31033 45.5134 10.007ZM43.9459 10.007C43.9459 9.44233 43.9055 8.97667 43.8249 8.61C43.7479 8.24333 43.6452 7.95367 43.5169 7.741C43.3885 7.52833 43.24 7.37983 43.0714 7.2955C42.9064 7.21117 42.7359 7.169 42.5599 7.169C42.3839 7.169 42.2134 7.21117 42.0484 7.2955C41.887 7.37983 41.7422 7.52833 41.6139 7.741C41.4892 7.95367 41.3884 8.24333 41.3114 8.61C41.2344 8.97667 41.1959 9.44233 41.1959 10.007C41.1959 10.5753 41.2344 11.0428 41.3114 11.4095C41.3884 11.7762 41.4892 12.0658 41.6139 12.2785C41.7422 12.4912 41.887 12.6397 42.0484 12.724C42.2134 12.8083 42.3839 12.8505 42.5599 12.8505C42.7359 12.8505 42.9064 12.8083 43.0714 12.724C43.24 12.6397 43.3885 12.4912 43.5169 12.2785C43.6452 12.0658 43.7479 11.7762 43.8249 11.4095C43.9055 11.0428 43.9459 10.5753 43.9459 10.007Z" fill="white"/>
<g clip-path="url(#clip0_4079_247)">
<path d="M30.7328 19.506C30.4951 19.2078 30.1385 19.0368 29.7544 19.0368H26.2878L24.4081 14.7325C24.2915 14.4656 23.9807 14.3436 23.7138 14.4603C23.4469 14.5768 23.325 14.8877 23.4415 15.1546L25.137 19.0368H18.863L20.5585 15.1546C20.675 14.8877 20.5531 14.5768 20.2862 14.4603C20.0194 14.3436 19.7085 14.4655 19.5919 14.7325L17.7122 19.0368H14.2456C13.8615 19.0368 13.5049 19.2078 13.2672 19.5061C13.0339 19.7988 12.9478 20.1752 13.031 20.5388L14.8822 28.6247C15.0115 29.1894 15.511 29.5837 16.0968 29.5837H27.9032C28.489 29.5837 28.9885 29.1894 29.1178 28.6247L30.969 20.5388C31.0522 20.1752 30.9661 19.7988 30.7328 19.506ZM27.9032 28.5289H16.0968C16.0073 28.5289 15.9289 28.4702 15.9103 28.3893L14.0591 20.3034C14.0446 20.24 14.069 20.1922 14.092 20.1634C14.1134 20.1365 14.1618 20.0915 14.2456 20.0915H17.2516L17.1135 20.4078C16.9969 20.6747 17.1188 20.9855 17.3857 21.1021C17.4544 21.1321 17.5259 21.1463 17.5964 21.1463C17.7997 21.1463 17.9934 21.0281 18.08 20.8299L18.4025 20.0915H25.5976L25.9201 20.8299C26.0067 21.0281 26.2004 21.1463 26.4036 21.1463C26.4741 21.1463 26.5457 21.1321 26.6144 21.1021C26.8813 20.9856 27.0032 20.6747 26.8866 20.4078L26.7485 20.0915H29.7545C29.8383 20.0915 29.8867 20.1365 29.908 20.1634C29.9311 20.1923 29.9555 20.24 29.941 20.3034L28.0897 28.3893C28.0712 28.4702 27.9927 28.5289 27.9032 28.5289Z" fill="black"/>
<path d="M18.8359 22.377C18.5447 22.377 18.3086 22.6131 18.3086 22.9043V26.7715C18.3086 27.0627 18.5447 27.2988 18.8359 27.2988C19.1272 27.2988 19.3633 27.0627 19.3633 26.7715V22.9043C19.3633 22.6131 19.1272 22.377 18.8359 22.377Z" fill="black"/>
<path d="M22 22.377C21.7088 22.377 21.4727 22.6131 21.4727 22.9043V26.7715C21.4727 27.0627 21.7088 27.2988 22 27.2988C22.2912 27.2988 22.5273 27.0627 22.5273 26.7715V22.9043C22.5273 22.6131 22.2912 22.377 22 22.377Z" fill="black"/>
<path d="M25.1641 22.377C24.8728 22.377 24.6367 22.6131 24.6367 22.9043V26.7715C24.6367 27.0627 24.8728 27.2988 25.1641 27.2988C25.4553 27.2988 25.6914 27.0627 25.6914 26.7715V22.9043C25.6914 22.6131 25.4553 22.377 25.1641 22.377Z" fill="black"/>
</g>
<defs>
<clipPath id="clip0_4079_247">
<rect width="18" height="18" fill="white" transform="translate(13 13)"/>
</clipPath>
</defs>
</svg>
